<svg xmlns="http://www.w3.org/2000/svg" xmlns:svg="http://www.w3.org/2000/svg" id="svg2" width="580" height="670" preserveAspectRatio="xMidYMid" version="1.1" viewBox="0 0 118.784 137.171"><metadata id="metadata10"/><path style="fill:#000;fill-opacity:1;stroke:none;stroke-width:1;stroke-linejoin:miter;stroke-miterlimit:4;stroke-dasharray:none;stroke-opacity:1" id="path4138" d="m 45.8,4.0632 0,7.440515 3.4568,0 0,11.144452 A 55.296002,55.710164 0 0 0 4.096,77.37704 55.296002,55.710164 0 0 0 59.392,133.0872 55.296002,55.710164 0 0 0 114.688,77.37704 55.296002,55.710164 0 0 0 69.5272,22.644137 l 0,-11.140422 3.4572,0 0,-7.440515 -27.1844,0 z m 15.1332,45.45876 c 13.79377,0.74192 24.90548,11.6304 26.106,25.38349 l 0,0.90594 -3.1452,0 0,3.15989 3.146,0 0,0.86362 c -1.19466,13.75998 -12.30816,24.65528 -26.1068,25.39722 l 0,-3.10026 -3.1404,0 0,3.09139 C 43.72889,104.39888 32.47836,93.02768 31.744,78.85159 l 3.1208,0 0,-3.15988 -3.104,0 C 32.59463,61.61476 43.79813,50.35224 57.7928,49.53082 l 0,3.1071 3.1404,0 0,-3.11596 z m 10.7704,13.07722 -10.5524,9.78353 a 4.9152002,4.9520146 0 0 0 -1.7592,-0.33408 4.9152002,4.9520146 0 0 0 -4.9152,4.95201 4.9152002,4.9520146 0 0 0 4.9152,4.95201 4.9152002,4.9520146 0 0 0 4.9152,-4.95201 4.9152002,4.9520146 0 0 0 -0.2068,-1.40847 l 9.528,-10.73743 -1.9248,-2.25556 z"/></svg>