<svg xmlns="http://www.w3.org/2000/svg" xmlns:svg="http://www.w3.org/2000/svg" id="Layer_1" width="20" height="20" x="0" y="0" enable-background="new 0 0 20 20" version="1.1" viewBox="0 0 20 20" xml:space="preserve"><metadata id="metadata4170"/><path style="fill:#000" id="path4158" d="M 10 2 C 6.0859461 2 2.8329326 4.8139078 2.140625 8.5273438 C 2.1400241 8.5305585 2.139268 8.533893 2.1386719 8.5371094 C 2.080594 8.8507976 2.045711 9.1707167 2.0253906 9.4960938 C 2.0250648 9.5013811 2.0237552 9.5064293 2.0234375 9.5117188 C 2.0238173 9.5117995 2.0250083 9.5116337 2.0253906 9.5117188 C 2.0155687 9.6740186 2 9.8352321 2 10 C 2 14.418 5.582 18 10 18 C 14.065713 18 17.41615 14.964062 17.925781 11.037109 C 17.925864 11.036472 17.925699 11.035794 17.925781 11.035156 C 17.963673 10.742624 17.986789 10.446089 17.992188 10.144531 C 17.993057 10.095962 18 10.048776 18 10 C 18 5.582 14.418 2 10 2 z M 10 3 C 13.622284 3 16.599651 5.7524307 16.960938 9.2792969 C 16.273803 8.8532811 15.315787 8.5 14 8.5 C 12.333 8.5 11.248219 9.3126094 10.199219 10.099609 C 9.2392188 10.819609 8.333 11.5 7 11.5 C 5.319 11.5 4.3464531 10.432219 3.5644531 9.5742188 C 3.3886555 9.3808413 3.2302642 9.2327578 3.0683594 9.0800781 C 3.5201452 5.6503374 6.4468982 3 10 3 z M 14 9.5 C 15.520087 9.5 16.444788 10.051194 16.972656 10.53125 C 16.69999 14.147904 13.686436 17 10 17 C 6.2871597 17 3.2582991 14.106643 3.0234375 10.453125 C 3.840348 11.339304 5.0268877 12.5 7 12.5 C 8.667 12.5 9.7517812 11.687391 10.800781 10.900391 C 11.760781 10.179391 12.667 9.5 14 9.5 z"/></svg>