<svg xmlns="http://www.w3.org/2000/svg" xmlns:svg="http://www.w3.org/2000/svg" id="Layer_1" width="16" height="16" x="0" y="0" enable-background="new 0 0 16 16" version="1.1" viewBox="0 0 16 16" xml:space="preserve"><metadata id="metadata4730"/><path style="fill:#000" id="rect4714" d="M 8 0 C 7.447 0 7 0.447 7 1 L 7 7 L 1 7 C 0.447 7 0 7.447 0 8 C 0 8.553 0.447 9 1 9 L 7 9 L 7 15 C 7 15.553 7.447 16 8 16 C 8.553 16 9 15.553 9 15 L 9 9 L 15 9 C 15.553 9 16 8.553 16 8 C 16 7.447 15.553 7 15 7 L 9 7 L 9 1 C 9 0.447 8.553 0 8 0 z"/></svg>