<svg xmlns="http://www.w3.org/2000/svg" xmlns:svg="http://www.w3.org/2000/svg" id="Layer_1" x="0" y="0" version="1.1" viewBox="0 0 32 32" xml:space="preserve" style="enable-background:new 0 0 32 32"><metadata id="metadata4745"/><style id="style4723" type="text/css">.st0{opacity:0}.st1{fill:#ff3386}.st2{fill:#3389ff}</style><g id="g4725" class="st0" style="fill:#000"><rect id="rect4727" width="32" height="32" class="st1" style="fill:#000"/></g><g id="g4729" style="fill:#000"><path id="path4731" d="M25,32H7c-3.9,0-7-3.1-7-7V7c0-3.9,3.1-7,7-7h18c3.9,0,7,3.1,7,7v18C32,28.9,28.9,32,25,32z M7,2 C4.2,2,2,4.2,2,7v18c0,2.8,2.2,5,5,5h18c2.8,0,5-2.2,5-5V7c0-2.8-2.2-5-5-5H7z" class="st2" style="fill:#000"/></g><g id="g4733" style="fill:#000"><path id="path4735" d="M24.1,26.9H10.4c-0.4,0-0.7-0.2-0.9-0.6c-0.2-0.4-0.1-0.8,0.1-1.1l9.4-11.1c0.2-0.2,0.5-0.4,0.8-0.4 c0.3,0,0.6,0.2,0.8,0.4l6,8.6c0.1,0.1,0.1,0.2,0.1,0.3c0.5,1.4,0.1,2.3-0.2,2.8C25.8,26.8,24.3,26.9,24.1,26.9z M12.6,24.9h11.6 c0.2,0,0.7-0.1,0.8-0.3c0.1-0.1,0.1-0.4,0-0.8l-5.2-7.4L12.6,24.9z" class="st2" style="fill:#000"/></g><g id="g4737" style="fill:#000"><path id="path4739" d="M10.4,15.7c-2.4,0-4.4-2-4.4-4.4s2-4.4,4.4-4.4s4.4,2,4.4,4.4S12.9,15.7,10.4,15.7z M10.4,8.9 C9.1,8.9,8,9.9,8,11.3s1.1,2.4,2.4,2.4s2.4-1.1,2.4-2.4S11.8,8.9,10.4,8.9z" class="st2" style="fill:#000"/></g></svg>