<svg xmlns="http://www.w3.org/2000/svg" xmlns:svg="http://www.w3.org/2000/svg" id="svg6" width="16" height="28" version="1.1" viewBox="0 0 16 28"><metadata id="metadata12"/><title id="title2">caret-down</title><g id="g3749" transform="translate(0,-0.0039063)"><path id="path4" d="m 16,15.003503 c 0,0.266 -0.109,0.516 -0.297,0.703 l -7,7 c -0.187,0.187 -0.438,0.297 -0.703,0.297 -0.265,0 -0.516,-0.109 -0.703,-0.297 l -7,-7 C 0.11,15.519503 0,15.268503 0,15.003503 c 0,-0.547 0.453,-1 0.99999997,-1 H 15 c 0.547,0 1,0.453 1,1 z"/><path id="path4-7" d="m 15.999999,6.0043096 c 0,0.266 -0.109,0.516 -0.297,0.703 L 8.7029995,13.707309 c -0.1869999,0.187 -0.438,0.297001 -0.7029999,0.297001 -0.2650001,0 -0.5160001,-0.109 -0.7030001,-0.297001 L 0.297,6.7073096 C 0.11,6.5203096 0,6.2693096 0,6.0043096 c 0,-0.547 0.453,-1 0.99999986,-1 H 14.999999 c 0.547,0 1,0.453 1,1 z"/></g></svg>