<svg xmlns="http://www.w3.org/2000/svg" xmlns:svg="http://www.w3.org/2000/svg" id="svg6" width="16" height="28" version="1.1" viewBox="0 0 16 28"><metadata id="metadata12"/><title id="title2">caret-up</title><g id="g3734" transform="translate(0.06567746,3.0040716)"><path id="path4" d="m 15.934323,18.996094 c 0,0.547 -0.453,1 -1,1 H 0.93432208 c -0.547,0 -1,-0.453 -1,-1 0,-0.266 0.109,-0.516 0.297,-0.703 l 7.00000002,-7 c 0.187,-0.187 0.438,-0.297 0.703,-0.297 0.265,0 0.516,0.109 0.703,0.297 l 6.9999999,7 c 0.187001,0.187 0.297001,0.438 0.297001,0.703 z"/><path id="path4-0" d="m 15.934323,9.9957628 c 0,0.5470002 -0.453,1.0000002 -1,1.0000002 H 0.93432253 c -0.54699995,0 -0.99999995,-0.453 -0.99999995,-1.0000002 0,-0.266 0.109,-0.516 0.297,-0.703 l 7.00000002,-7 c 0.187,-0.187 0.438,-0.297 0.7030002,-0.297 0.265,0 0.516,0.109 0.703,0.297 l 7.0000002,7 c 0.186999,0.187 0.297,0.438 0.297,0.703 z"/></g></svg>