<svg xmlns="http://www.w3.org/2000/svg" xmlns:svg="http://www.w3.org/2000/svg" id="Layer_1" width="20" height="20" x="0" y="0" enable-background="new 0 0 20 20" version="1.1" viewBox="0 0 20 20" xml:space="preserve"><metadata id="metadata9"/><path id="path3" fill="#438CEF" fill-rule="evenodd" d="M10,20C4.477,20,0,15.523,0,10S4.477,0,10,0s10,4.477,10,10 S15.523,20,10,20z M16.715,5.285c-0.375-0.375-0.982-0.375-1.357,0L8,12.643L4.643,9.285c-0.375-0.375-0.982-0.375-1.357,0 s-0.375,0.982,0,1.357c0,0,3.936,4.009,4,4.072C7.481,14.912,7.742,15,8,14.989C8.258,15,8.519,14.912,8.715,14.715 c0.064-0.063,8-8.072,8-8.072C17.09,6.268,17.09,5.66,16.715,5.285z" clip-rule="evenodd" style="fill:#000"/></svg>