<svg xmlns="http://www.w3.org/2000/svg" xmlns:svg="http://www.w3.org/2000/svg" id="Layer_1" width="16" height="16" x="0" y="0" enable-background="new 0 0 16 16" version="1.1" viewBox="0 0 16 16" xml:space="preserve"><metadata id="metadata4701"/><path id="path4695" fill="#438CEF" fill-rule="evenodd" d="M9.391,8l4.324,4.324c0.383,0.384,0.383,1.006,0,1.391 c-0.385,0.384-1.006,0.384-1.391,0L8,9.391l-4.324,4.324c-0.383,0.384-1.006,0.384-1.391,0c-0.383-0.385-0.383-1.007,0-1.391 L6.609,8L2.285,3.676c-0.383-0.384-0.383-1.006,0-1.391c0.385-0.384,1.008-0.384,1.391,0L8,6.609l4.324-4.324 c0.385-0.384,1.006-0.384,1.391,0c0.383,0.385,0.383,1.007,0,1.391L9.391,8z" clip-rule="evenodd" style="fill:#000"/></svg>