<svg xmlns="http://www.w3.org/2000/svg" xmlns:svg="http://www.w3.org/2000/svg" xmlns:xlink="http://www.w3.org/1999/xlink" id="Layer_1" x="0" y="0" version="1.1" viewBox="0 0 40 40" xml:space="preserve" style="enable-background:new 0 0 40 40"><path id="path3" d="M20,0c-0.6,0-1,0.4-1,1s0.4,1,1,1h5v34h-5c-0.6,0-1,0.4-1,1s0.4,1,1,1h12c0.6,0,1-0.4,1-1s-0.4-1-1-1h-5V2h5	c0.6,0,1-0.4,1-1s-0.4-1-1-1H20z M2,8c-1.1,0-2,0.9-2,2v18c0,1.1,0.9,2,2,2h21v-2H3c-0.6,0-1-0.4-1-1V11c0-0.6,0.4-1,1-1h20V8H2z M29,8v2h8c0.6,0,1,0.4,1,1v16c0,0.6-0.4,1-1,1h-8v2h9c1.1,0,2-0.9,2-2V10c0-1.1-0.9-2-2-2H29z"/><g><path d="M15.1,23.7c0,0.5-0.3,0.9-0.8,1c-1.1,0.4-2.3,0.6-3.6,0.6c-1.4,0-2.6-0.4-3.3-1c-0.7-0.6-1-1.5-1-2.6s0.4-2,1-2.6 c0.7-0.7,1.8-0.9,3.3-0.9h2.7v-1.5c0-1.4-1-2.1-2.5-2.1c-0.9,0-1.8,0.3-2.7,0.8c-0.1,0.1-0.2,0.1-0.4,0.1c-0.4,0-0.8-0.3-0.8-0.8 c0-0.3,0.1-0.5,0.4-0.7C8.6,13.2,9.8,13,11,13c2.2,0,4.1,1.2,4.1,3.6V23.7z M13.5,19.6h-2.7c-2.4,0-2.7,1.1-2.7,2.1 s0.3,2.2,2.7,2.2c0.9,0,1.8-0.1,2.7-0.4V19.6z"/></g></svg>