<svg xmlns="http://www.w3.org/2000/svg" xmlns:svg="http://www.w3.org/2000/svg" id="Layer_1" width="20" height="20" x="0" y="0" enable-background="new 0 0 20 20" version="1.1" viewBox="0 0 20 20" xml:space="preserve"><metadata id="metadata13"/><g id="g3" style="fill:#000"><g id="g5" style="fill:#000"><path id="path7" fill="#A1B0B5" fill-rule="evenodd" d="M9.5,8C9.225,8,9,8.225,9,8.5S9.225,9,9.5,9h1 C10.775,9,11,8.775,11,8.5S10.775,8,10.5,8H9.5z M4.5,12h-1C3.225,12,3,12.224,3,12.5S3.225,13,3.5,13h1C4.775,13,5,12.776,5,12.5 S4.775,12,4.5,12z M4.5,10h-1C3.225,10,3,10.224,3,10.5S3.225,11,3.5,11h1C4.775,11,5,10.776,5,10.5S4.775,10,4.5,10z M1,14.5V6 h13v2h1V2.5C15,1.673,14.327,1,13.5,1H11V0.5C11,0.224,10.776,0,10.5,0S10,0.224,10,0.5V1H5V0.5C5,0.224,4.775,0,4.5,0 S4,0.224,4,0.5V1H1.5C0.673,1,0,1.673,0,2.5v12C0,15.327,0.673,16,1.5,16H8v-1H1.5C1.225,15,1,14.776,1,14.5z M1,2.5 C1,2.225,1.225,2,1.5,2H4v1.5C4,3.775,4.225,4,4.5,4S5,3.775,5,3.5V2h5v1.5C10,3.775,10.224,4,10.5,4S11,3.775,11,3.5V2h2.5 C13.776,2,14,2.225,14,2.5V5H1V2.5z M7.5,8h-1C6.225,8,6,8.225,6,8.5S6.225,9,6.5,9h1C7.775,9,8,8.775,8,8.5S7.775,8,7.5,8z M14.5,9C11.462,9,9,11.462,9,14.5s2.462,5.5,5.5,5.5s5.5-2.462,5.5-5.5S17.538,9,14.5,9z M14.5,19c-2.485,0-4.5-2.015-4.5-4.5 s2.015-4.5,4.5-4.5s4.5,2.015,4.5,4.5S16.985,19,14.5,19z M7.5,10h-1C6.225,10,6,10.224,6,10.5S6.225,11,6.5,11h1 C7.775,11,8,10.776,8,10.5S7.775,10,7.5,10z M7.5,12h-1C6.225,12,6,12.224,6,12.5S6.225,13,6.5,13h1C7.775,13,8,12.776,8,12.5 S7.775,12,7.5,12z M16.5,14H15v-1.5c0-0.276-0.224-0.5-0.5-0.5S14,12.224,14,12.5v2c0,0.276,0.224,0.5,0.5,0.5h2 c0.276,0,0.5-0.224,0.5-0.5S16.776,14,16.5,14z" clip-rule="evenodd" style="fill:#000"/></g></g></svg>