<svg xmlns="http://www.w3.org/2000/svg" xmlns:svg="http://www.w3.org/2000/svg" id="Layer_1" x="0" y="0" version="1.1" viewBox="0 0 34.5 31" xml:space="preserve" style="enable-background:new 0 0 34.5 31"><metadata id="metadata19"/><style id="style2" type="text/css">.st0{fill:#b3bbbf}</style><g id="g6" style="fill:#000"><path id="path4" d="M 15.1,10 V 8.5 h 3.4 v -2 C 18.5,5 17.3,3.8 15.8,3.8 14.3,3.8 13.1,5 13.1,6.5 v 16.4 l 2.7,4.9 2.7,-4.9 V 10 Z" class="st0" style="fill:#000"/></g><g id="g12" style="fill:#000"><path id="path8" d="m 10.9,21.7 h -2 C 7.1,21.7 5.7,20.3 5.7,18.5 V 10.8 C 5.7,9 7.1,7.6 8.9,7.6 h 2 V 6.3 h -2 c -2.5,0 -4.5,2 -4.5,4.5 v 7.7 c 0,2.5 2,4.5 4.5,4.5 h 2 z" class="st0" style="fill:#000"/><path id="path10" d="M 25.8,7.9 C 25,6.9 23.8,6.3 22.5,6.3 h -1.8 v 1.3 h 1.2 c 1.3,0 2.5,0.6 3.3,1.6 l 4.4,5.5 -4.3,5.4 c -0.8,1 -2.1,1.6 -3.4,1.6 H 20.8 V 23 h 1.7 c 1.3,0 2.6,-0.6 3.4,-1.6 l 5.4,-6.7 z" class="st0" style="fill:#000"/></g></svg>