<svg xmlns="http://www.w3.org/2000/svg" xmlns:svg="http://www.w3.org/2000/svg" id="Layer_1" x="0" y="0" version="1.1" viewBox="0 0 32 32" xml:space="preserve" style="enable-background:new 0 0 32 32"><metadata id="metadata4180"/><style id="style4154" type="text/css">.st0{opacity:0}.st1{fill:#ff3386}.st2{fill:#3389ff}</style><g id="g4156" class="st0" style="fill:#000"><rect id="rect4158" width="32" height="32" class="st1" style="fill:#000"/></g><g id="g4160" style="fill:#000"><path id="path4162" d="M25,32H7c-3.9,0-7-3.1-7-7V7c0-3.9,3.1-7,7-7h18c3.9,0,7,3.1,7,7v18C32,28.9,28.9,32,25,32z M7,2 C4.2,2,2,4.2,2,7v18c0,2.8,2.2,5,5,5h18c2.8,0,5-2.2,5-5V7c0-2.8-2.2-5-5-5H7z" class="st2" style="fill:#000"/></g><g id="g4164" style="fill:#000"><path id="path4166" d="M15,14H8.4c-1.8,0-3.3-1.5-3.3-3.3V8.4c0-1.8,1.5-3.3,3.3-3.3H15c1.8,0,3.3,1.5,3.3,3.3v2.3 C18.3,12.5,16.8,14,15,14z M8.4,7.1c-0.7,0-1.3,0.6-1.3,1.3v2.3c0,0.7,0.6,1.3,1.3,1.3H15c0.7,0,1.3-0.6,1.3-1.3V8.4 c0-0.7-0.6-1.3-1.3-1.3H8.4z" class="st2" style="fill:#000"/></g><g id="g4168" style="fill:#000"><path id="path4170" d="M25.9,19.1H6.1c-0.6,0-1-0.4-1-1s0.4-1,1-1h19.7c0.6,0,1,0.4,1,1S26.4,19.1,25.9,19.1z" class="st2" style="fill:#000"/></g><g id="g4172" style="fill:#000"><path id="path4174" d="M17.3,24.3H6.1c-0.6,0-1-0.4-1-1s0.4-1,1-1h11.1c0.6,0,1,0.4,1,1S17.8,24.3,17.3,24.3z" class="st2" style="fill:#000"/></g></svg>