<svg xmlns="http://www.w3.org/2000/svg" xmlns:svg="http://www.w3.org/2000/svg" id="Layer_1" width="40" height="40" x="0" y="0" enable-background="new 0 0 40 40" version="1.1" viewBox="0 0 40 40" xml:space="preserve"><metadata id="metadata13"/><path id="path7" d="m 6,28 c -3.312,0 -6,2.688 -6,6 0,3.312 2.688,6 6,6 3.312,0 6,-2.688 6,-6 0,-3.312 -2.688,-6 -6,-6 z m 0,10 c -2.209,0 -4,-1.791 -4,-4 0,-2.209 1.791,-4 4,-4 2.209,0 4,1.791 4,4 0,2.209 -1.791,4 -4,4 z M 15,7 39,7 C 39.553,7 40,6.553 40,6 40,5.447 39.553,5 39,5 L 15,5 c -0.552,0 -1,0.447 -1,1 0,0.553 0.448,1 1,1 z m 24,12 -24,0 c -0.552,0 -1,0.447 -1,1 0,0.553 0.448,1 1,1 l 24,0 c 0.553,0 1,-0.447 1,-1 0,-0.553 -0.447,-1 -1,-1 z M 6,0 C 2.688,0 0,2.687 0,6 0,9.313 2.688,12 6,12 9.312,12 12,9.313 12,6 12,2.687 9.312,0 6,0 Z M 6,10 C 3.791,10 2,8.209 2,6 2,3.791 3.791,2 6,2 c 2.209,0 4,1.791 4,4 0,2.209 -1.791,4 -4,4 z m 0,4 c -3.312,0 -6,2.687 -6,6 0,3.312 2.688,6 6,6 3.312,0 6,-2.688 6,-6 0,-3.313 -2.688,-6 -6,-6 z m 0,10 c -2.209,0 -4,-1.791 -4,-4 0,-2.209 1.791,-4 4,-4 2.209,0 4,1.791 4,4 0,2.209 -1.791,4 -4,4 z M 6,4 C 4.896,4 4,4.896 4,6 4,7.104 4.896,8 6,8 7.104,8 8,7.104 8,6 8,4.896 7.104,4 6,4 Z m 33,29 -24,0 c -0.552,0 -1,0.447 -1,1 0,0.553 0.448,1 1,1 l 24,0 c 0.553,0 1,-0.447 1,-1 0,-0.553 -0.447,-1 -1,-1 z" style="fill:#000"/></svg>