<svg xmlns="http://www.w3.org/2000/svg" xmlns:svg="http://www.w3.org/2000/svg" id="Layer_1" width="40" height="40" x="0" y="0" enable-background="new 0 0 40 40" version="1.1" viewBox="0 0 40 40" xml:space="preserve"><metadata id="metadata27"/><path style="fill:#000" id="path7" d="M 13 1 C 8.029 1 4 5.029 4 10 C 4 14.971 8.029 19 13 19 L 27 19 C 31.971 19 36 14.971 36 10 C 36 5.029 31.971 1 27 1 L 13 1 z M 13 3 L 27 3 C 30.866 3 34 6.134 34 10 C 34 13.866 30.866 17 27 17 L 13 17 C 9.134 17 6 13.866 6 10 C 6 6.134 9.134 3 13 3 z M 13 5 C 10.238 5 8 7.238 8 10 C 8 12.762 10.238 15 13 15 C 15.762 15 18 12.762 18 10 C 18 7.238 15.762 5 13 5 z M 13 7 C 14.657 7 16 8.343 16 10 C 16 11.657 14.657 13 13 13 C 11.343 13 10 11.657 10 10 C 10 8.343 11.343 7 13 7 z M 13 21 C 8.029 21 4 25.029 4 30 C 4 34.971 8.029 39 13 39 L 27 39 C 31.971 39 36 34.971 36 30 C 36 25.029 31.971 21 27 21 L 13 21 z M 13 23 L 27 23 C 30.866 23 34 26.134 34 30 C 34 33.866 30.866 37 27 37 L 13 37 C 9.134 37 6 33.866 6 30 C 6 26.134 9.134 23 13 23 z M 27 25 C 24.238 25 22 27.238 22 30 C 22 32.762 24.238 35 27 35 C 29.762 35 32 32.762 32 30 C 32 27.238 29.762 25 27 25 z M 27 27 C 28.657 27 30 28.343 30 30 C 30 31.657 28.657 33 27 33 C 25.343 33 24 31.657 24 30 C 24 28.343 25.343 27 27 27 z"/></svg>