<svg xmlns="http://www.w3.org/2000/svg" xmlns:svg="http://www.w3.org/2000/svg" id="Layer_1" width="40" height="40" x="0" y="0" enable-background="new 0 0 40 40" version="1.1" viewBox="0 0 40 40" xml:space="preserve"><metadata id="metadata15"/><path id="path3" d="M 20 0 C 19.447 0 19 0.447 19 1 C 19 1.553 19.447 2 20 2 L 25 2 L 25 36 L 20 36 C 19.447 36 19 36.447 19 37 C 19 37.553 19.447 38 20 38 L 32 38 C 32.553 38 33 37.553 33 37 C 33 36.447 32.553 36 32 36 L 27 36 L 27 2 L 32 2 C 32.553 2 33 1.553 33 1 C 33 0.447 32.553 0 32 0 L 20 0 z M 2 8 C 0.896 8 0 8.896 0 10 L 0 28 C 0 29.104 0.896 30 2 30 L 23 30 L 23 28 L 3 28 C 2.448 28 2 27.553 2 27 L 2 11 C 2 10.447 2.448 10 3 10 L 23 10 L 23 8 L 2 8 z M 29 8 L 29 10 L 37 10 C 37.553 10 38 10.447 38 11 L 38 27 C 38 27.553 37.553 28 37 28 L 29 28 L 29 30 L 38 30 C 39.104 30 40 29.104 40 28 L 40 10 C 40 8.896 39.104 8 38 8 L 29 8 z M 11.167969 11.992188 C 11.144969 11.994188 11.122609 11.994047 11.099609 11.998047 C 10.777609 12.000047 10.459156 12.172812 10.285156 12.507812 L 5.1074219 24.470703 C 4.8474219 24.968703 4.9954531 25.602766 5.4394531 25.884766 C 5.8824531 26.166766 6.4538906 25.992141 6.7128906 25.494141 L 7.7929688 23 L 7.796875 23 L 14.453125 23 C 14.473125 23 14.488812 22.991234 14.507812 22.990234 L 15.580078 25.492188 C 15.839078 25.990188 16.405703 26.166766 16.845703 25.884766 C 17.285703 25.602766 17.431828 24.968703 17.173828 24.470703 L 12.044922 12.507812 C 11.870922 12.172812 11.559281 12.001047 11.238281 11.998047 C 11.214281 11.994047 11.190969 11.994187 11.167969 11.992188 z M 11.167969 15.201172 L 13.654297 21 L 8.6582031 21 L 11.167969 15.201172 z"/></svg>