<svg xmlns="http://www.w3.org/2000/svg" xmlns:svg="http://www.w3.org/2000/svg" id="Layer_1" width="40" height="40" x="0" y="0" enable-background="new 0 0 40 40" version="1.1" viewBox="0 0 40 40" xml:space="preserve"><metadata id="metadata37"/><g style="font-style:normal;font-variant:normal;font-weight:400;font-stretch:normal;font-size:17.93698692px;line-height:1.25;font-family:Consolas;-inkscape-font-specification:Consolas;letter-spacing:0;word-spacing:0;fill:#000;fill-opacity:1;stroke:none;stroke-width:.44842473" id="text818" aria-label="&lt;br&gt;" transform="matrix(1.0526316,0,0,1.0526316,-1.0526316,-1.368421)"><path style="font-style:normal;font-variant:normal;font-weight:700;font-stretch:normal;font-family:Consolas;-inkscape-font-specification:'Consolas Bold';letter-spacing:.09559436px;stroke-width:.44842473" id="path820" d="m 6.9030904,26 -5.90309042,-4.974711 5.90309042,-4.965953 1.3662939,1.38381 -4.344114,3.564626 4.344114,3.608417 z"/><path style="font-style:normal;font-variant:normal;font-weight:700;font-stretch:normal;font-family:Consolas;-inkscape-font-specification:'Consolas Bold';letter-spacing:.09559436px;stroke-width:.44842473" id="path822" d="m 19.304089,21.191696 q 0,1.226162 -0.350332,2.119508 -0.341574,0.893346 -0.963412,1.48891 -0.613081,0.586805 -1.453877,0.875829 -0.840797,0.280265 -1.830484,0.280265 -0.97217,0 -1.812967,-0.148891 -0.832038,-0.140132 -1.594009,-0.385364 V 13.423089 h 2.137023 v 2.907754 l -0.08758,1.751659 q 0.481706,-0.621839 1.121061,-0.998446 0.648114,-0.376606 1.550218,-0.376606 0.788247,0 1.401327,0.315298 0.613081,0.315299 1.024721,0.902105 0.420398,0.578047 0.639355,1.410085 0.218958,0.82328 0.218958,1.856758 z m -2.242124,0.08758 q 0,-0.735696 -0.105099,-1.252436 -0.1051,-0.516739 -0.30654,-0.849554 -0.192683,-0.332816 -0.481707,-0.481707 -0.280265,-0.157649 -0.648113,-0.157649 -0.543015,0 -1.042237,0.437915 -0.490465,0.437915 -1.042238,1.191128 v 3.888683 q 0.253991,0.09634 0.621839,0.157649 0.376607,0.06131 0.761972,0.06131 0.507981,0 0.919621,-0.210199 0.420398,-0.210199 0.709422,-0.595564 0.297782,-0.385365 0.455431,-0.937138 0.157649,-0.56053 0.157649,-1.252436 z"/><path style="font-style:normal;font-variant:normal;font-weight:700;font-stretch:normal;font-family:Consolas;-inkscape-font-specification:'Consolas Bold';letter-spacing:.09559436px;stroke-width:.44842473" id="path824" d="m 27.001883,20.359658 q 0.01752,-0.499222 -0.05255,-0.849554 -0.06131,-0.350332 -0.210199,-0.578048 -0.140133,-0.227715 -0.350332,-0.332815 -0.210199,-0.105099 -0.481706,-0.105099 -0.472948,0 -0.980929,0.394123 -0.499223,0.385365 -1.103545,1.278711 v 5.631583 h -2.189573 v -8.898427 h 1.935583 l 0.07882,1.296228 q 0.218958,-0.341574 0.490465,-0.613081 0.280265,-0.271507 0.61308,-0.46419 0.341574,-0.20144 0.753214,-0.30654 0.411639,-0.105099 0.902104,-0.105099 0.674389,0 1.191128,0.236474 0.525498,0.227715 0.875829,0.683147 0.359091,0.455431 0.525498,1.147336 0.175166,0.683147 0.148891,1.585251 z"/><path style="font-style:normal;font-variant:normal;font-weight:700;font-stretch:normal;font-family:Consolas;-inkscape-font-specification:'Consolas Bold';letter-spacing:.09559436px;stroke-width:.44842473" id="path826" d="M 33.096909,16.059336 39,21.025289 33.096909,26 31.739374,24.616189 36.074729,21.042805 31.739374,17.443146 Z"/></g></svg>