<svg xmlns="http://www.w3.org/2000/svg" xmlns:svg="http://www.w3.org/2000/svg" id="Layer_1" width="20" height="20" x="0" y="0" enable-background="new 0 0 20 20" version="1.1" viewBox="0 0 20 20" xml:space="preserve"><metadata id="metadata11"/><path id="path3" d="M 4 1 C 2.896 1 2 1.896 2 3 L 2 13 C 2 14.104 2.896 15 4 15 L 12 15 C 13.104 15 14 14.104 14 13 L 14 3 C 14 1.896 13.104 1 12 1 L 4 1 z M 4 2 L 12 2 C 12.552 2 13 2.447 13 3 L 13 13 C 13 13.553 12.552 14 12 14 L 4 14 C 3.448 14 3 13.553 3 13 L 3 3 C 3 2.447 3.448 2 4 2 z M 15 4 L 15 5 C 15.552 5 16 5.447 16 6 L 16 16 C 16 16.553 15.552 17 15 17 L 7 17 C 6.448 17 6 16.553 6 16 L 5 16 C 5 17.104 5.896 18 7 18 L 15 18 C 16.104 18 17 17.104 17 16 L 17 6 C 17 4.896 16.104 4 15 4 z" style="fill:#000"/></svg>