<svg xmlns="http://www.w3.org/2000/svg" xmlns:svg="http://www.w3.org/2000/svg" id="Layer_1" x="0" y="0" version="1.1" viewBox="0 0 64 64" xml:space="preserve" style="enable-background:new 0 0 64 64"><metadata id="metadata8804"/><style id="style8758" type="text/css">.st0{opacity:0}.st1{fill:#0074ff}.st2{fill:#b4bcc1}.st4{fill:#2e3842}.st7{fill:#c7e0ff}.st8{fill:#7d878e}.st9{fill:#eef6ff}.st10{opacity:.2}.st11{fill:#3389ff}.st15{fill:#fff}</style><g id="g8760" class="st0"><rect id="rect8762" width="64" height="64" class="st1"/></g><g id="g8764"><path id="path8766" d="M50.2,61H13.8C7.9,61,3,56.1,3,50.2V26.8C3,20.9,7.9,16,13.8,16h36.4C56.1,16,61,20.9,61,26.8v23.4 C61,56.1,56.1,61,50.2,61z" class="st7"/><path id="path8768" d="M50.2,62H13.8C7.3,62,2,56.7,2,50.2V26.8C2,20.3,7.3,15,13.8,15h36.4C56.7,15,62,20.3,62,26.8v23.4 C62,56.7,56.7,62,50.2,62z M13.8,17C8.4,17,4,21.4,4,26.8v23.4c0,5.4,4.4,9.8,9.8,9.8h36.4c5.4,0,9.8-4.4,9.8-9.8V26.8 c0-5.4-4.4-9.8-9.8-9.8H13.8z" class="st4"/></g><g id="g8770"><path id="path8772" d="M50.7,12H12.1c-0.6,0-1-0.4-1-1s0.4-1,1-1h38.6c0.6,0,1,0.4,1,1S51.2,12,50.7,12z" class="st8"/></g><g id="g8774"><path id="path8776" d="M44.7,6H18.1c-0.6,0-1-0.4-1-1s0.4-1,1-1h26.6c0.6,0,1,0.4,1,1S45.2,6,44.7,6z" class="st2"/></g><g id="g8778"><path id="path8780" d="M50.2,60H13.8C8.4,60,4,55.6,4,50.2V26.8c0-5.4,4.4-9.8,9.8-9.8h36.3c5.4,0,9.8,4.4,9.8,9.8v23.3 C60,55.6,55.6,60,50.2,60z M13.8,19C9.5,19,6,22.5,6,26.8v23.3c0,4.3,3.5,7.8,7.8,7.8h36.3c4.3,0,7.8-3.5,7.8-7.8V26.8 c0-4.3-3.5-7.8-7.8-7.8H13.8z" class="st9"/></g><g id="g8782" class="st10"><path id="path8784" d="M51.7,22v14.1c0,2.7-2.2,4.9-4.9,4.9H17.2c-2.7,0-4.9-2.2-4.9-4.9V22h-2v14.1c0,3.8,3.1,6.9,6.9,6.9h29.6 c3.8,0,6.9-3.1,6.9-6.9V22H51.7z" class="st11"/></g><g id="g8786"><circle id="circle8788" cx="51.9" cy="12.1" r="11.1" class="st11"/><path id="path8790" d="M51.9,24.2c-6.7,0-12.1-5.4-12.1-12.1S45.2,0,51.9,0S64,5.4,64,12.1S58.6,24.2,51.9,24.2z M51.9,2 c-5.6,0-10.1,4.5-10.1,10.1s4.5,10.1,10.1,10.1S62,17.7,62,12.1S57.5,2,51.9,2z" class="st15"/></g><g id="g8792"><path id="path8794" d="M57,13H47c-0.6,0-1-0.4-1-1s0.4-1,1-1h10c0.6,0,1,0.4,1,1S57.6,13,57,13z" class="st15"/></g><g id="g8796"><path id="path8798" d="M52,18c-0.6,0-1-0.4-1-1V7c0-0.6,0.4-1,1-1s1,0.4,1,1v10C53,17.6,52.6,18,52,18z" class="st15"/></g></svg>