<svg xmlns="http://www.w3.org/2000/svg" xmlns:svg="http://www.w3.org/2000/svg" id="Layer_1" x="0" y="0" version="1.1" viewBox="0 0 64 64" xml:space="preserve" style="enable-background:new 0 0 64 64"><metadata id="metadata9393"/><style id="style9347" type="text/css">.st0{opacity:0}.st1{fill:#0074ff}.st2{fill:#b4bcc1}.st4{fill:#2e3842}.st12{fill:#f2bdbd}.st13{fill:#f7dcdc}.st14{fill:#e29393}.st15{fill:#fff}</style><g id="g9349" class="st0"><rect id="rect9351" width="64" height="64" class="st1"/></g><g id="g9353"><path id="path9355" d="M42.2,53H22.8C16.9,53,12,48.1,12,42.2V13.8C12,7.9,16.9,3,22.8,3h25.1C50.7,3,53,5.3,53,8.1v34.1 C53,48.1,48.1,53,42.2,53z" class="st12"/><path id="path9357" d="M42.2,54H22.8C16.3,54,11,48.7,11,42.2V13.8C11,7.3,16.3,2,22.8,2h25.1C51.3,2,54,4.7,54,8.1v34.1 C54,48.7,48.7,54,42.2,54z M22.8,4C17.4,4,13,8.4,13,13.8v28.4c0,5.4,4.4,9.8,9.8,9.8h19.4c5.4,0,9.8-4.4,9.8-9.8V8.1 C52,5.8,50.2,4,47.9,4H22.8z" class="st4"/></g><g id="g9359"><path id="path9361" d="M42.1,54H22.9c-5.5,0-9.9-4.4-9.9-9.9V13.9C13,8.4,17.4,4,22.9,4h24.9C50.1,4,52,5.9,52,8.3v35.9 C52,49.6,47.6,54,42.1,54z M22.9,6C18.5,6,15,9.5,15,13.9v30.2c0,4.4,3.5,7.9,7.9,7.9h19.2c4.4,0,7.9-3.5,7.9-7.9V8.3 C50,7,49,6,47.7,6H22.9z" class="st13"/></g><g id="g9363"><path id="path9365" d="M44,15H21.1c-0.6,0-1-0.4-1-1s0.4-1,1-1H44c0.6,0,1,0.4,1,1S44.6,15,44,15z" class="st14"/></g><g id="g9367"><path id="path9369" d="M44,22H21.1c-0.6,0-1-0.4-1-1s0.4-1,1-1H44c0.6,0,1,0.4,1,1S44.6,22,44,22z" class="st14"/></g><g id="g9371"><path id="path9373" d="M30,29h-8.9c-0.6,0-1-0.4-1-1s0.4-1,1-1H30c0.6,0,1,0.4,1,1S30.6,29,30,29z" class="st14"/></g><g id="g9375"><g id="g9377"><path id="path9379" d="M7,40h14.3c1.6,0,3.1,1,3.7,2.5l0,0c0.6,1.5,2.1,2.5,3.7,2.5H57c2.2,0,4,1.8,4,4v8c0,2.2-1.8,4-4,4H7 c-2.2,0-4-1.8-4-4V44C3,41.8,4.8,40,7,40z" class="st15"/></g><g id="g9381"><path id="path9383" d="M4,51v-7c0-1.6,1.3-3,3-3h14.3c1.2,0,2.3,0.7,2.8,1.9c0.8,1.9,2.6,3.1,4.6,3.1H57c1.6,0,3,1.3,3,3v4h2v-4 c0-2.7-2.2-5-5-5H28.7c-1.2,0-2.3-0.7-2.8-1.9c-0.8-1.9-2.6-3.1-4.6-3.1H7c-2.7,0-5,2.2-5,5v7H4z" class="st4"/></g></g><g id="g9385"><path id="path9387" d="M60,57c0,1.6-1.3,3-3,3H7c-1.6,0-3-1.3-3-3v-4H2v4c0,2.7,2.2,5,5,5h50c2.7,0,5-2.2,5-5H60z" class="st2"/></g></svg>