<svg xmlns="http://www.w3.org/2000/svg" xmlns:svg="http://www.w3.org/2000/svg" id="Layer_1" x="0" y="0" version="1.1" viewBox="0 0 64 64" xml:space="preserve" style="enable-background:new 0 0 64 64"><metadata id="metadata9990"/><style id="style9936" type="text/css">.st0{opacity:0}.st1{fill:#0074ff}.st2{fill:#b4bcc1}.st4{fill:#2e3842}.st15{fill:#fff}.st16{fill:#f7f6e7}.st17{fill:#efebbf}.st18{fill:#fcfbeb}.st19{fill:#cec395}.st20{fill:#f9c553}</style><g id="g9938" class="st0"><rect id="rect9940" width="64" height="64" class="st1"/></g><g id="g9942"><path id="path9944" d="M48,35c0,0-3,9-19,15l11.5,6.5L41,51l4.2-1.4l2.3-1.1l1-3L48,35z" class="st16"/></g><g id="g9946"><path id="path9948" d="M57.7,3H12.5C7.3,3,3,7.3,3,12.5v13.3C3,28.7,5.3,31,8.2,31H19v6l5.3-3.7c2.1-1.5,4.7-2.3,7.3-2.3h20 c5.2,0,9.5-4.3,9.5-9.5V6.3C61,4.5,59.5,3,57.7,3z" class="st17"/><path id="path9950" d="M19,38c-0.2,0-0.3,0-0.5-0.1C18.2,37.7,18,37.4,18,37v-5H8.2C4.8,32,2,29.2,2,25.8V12.5C2,6.7,6.7,2,12.5,2 h45.2C60,2,62,4,62,6.3v15.2C62,27.3,57.3,32,51.5,32h-20c-2.4,0-4.7,0.7-6.7,2.1l-5.3,3.7C19.4,37.9,19.2,38,19,38z M12.5,4 C7.8,4,4,7.8,4,12.5v13.3C4,28.1,5.9,30,8.2,30H19c0.6,0,1,0.4,1,1v4.1l3.7-2.6c2.3-1.6,5-2.5,7.8-2.5h20c4.7,0,8.5-3.8,8.5-8.5 V6.3C60,5.1,58.9,4,57.7,4H12.5z" class="st4"/></g><g id="g9952"><g id="g9954"><path id="path9956" d="M56.8,6C57.4,6,58,6.5,58,7.1v13.8c0,3.7-3.2,6.6-7.1,6.6H31.6c-2.9,0-5.7,0.8-8.1,2.4l-2,1.3v-1.7 c0-1.1-0.9-2-2-2H9c-1.7,0-3-1.2-3-2.8V12.6C6,9,9.2,6,13.1,6H56.8 M56.8,4H13.1C8.1,4,4,7.9,4,12.6v12.1c0,2.6,2.3,4.8,5,4.8 h10.5V35l5.1-3.4c2-1.4,4.5-2.1,7-2.1h19.3c5,0,9.1-3.9,9.1-8.6V7.1C60,5.4,58.6,4,56.8,4L56.8,4z" class="st18"/></g></g><g id="g9958"><path id="path9960" d="M50.5,13h-37c-0.6,0-1-0.4-1-1s0.4-1,1-1h37c0.6,0,1,0.4,1,1S51.1,13,50.5,13z" class="st19"/></g><g id="g9962"><path id="path9964" d="M35,21H13c-0.6,0-1-0.4-1-1s0.4-1,1-1h22c0.6,0,1,0.4,1,1S35.6,21,35,21z" class="st19"/></g><g id="g9966"><circle id="circle9968" cx="15.5" cy="50.5" r="11.5" class="st20"/></g><g id="g9970"><circle id="circle9972" cx="19.1" cy="48.1" r="1.5" class="st15"/></g><g id="g9974"><circle id="circle9976" cx="12" cy="48" r="1.5" class="st15"/></g><g id="g9978"><path id="path9980" d="M15.6,56.7c-4.2,0-7.2-2.9-7.3-3c-0.4-0.4-0.4-1,0-1.4c0.4-0.4,1-0.4,1.4,0c0.2,0.2,5.5,5.3,11.6,0 c0.4-0.4,1.1-0.3,1.4,0.1c0.4,0.4,0.3,1-0.1,1.4C20.1,55.9,17.7,56.7,15.6,56.7z" class="st15"/></g><g id="g9982"><path id="path9984" d="M47,34v11.8c0,2.3-1.9,4.2-4.2,4.2H40c-0.6,0-1,0.4-1,1v4.1l-3.7-2.6c-1.9-1.3-4-2.1-6.3-2.4v2 c1.8,0.2,3.6,0.9,5.1,2l5.3,3.7c0.2,0.1,0.4,0.2,0.6,0.2c0.2,0,0.3,0,0.5-0.1c0.3-0.2,0.5-0.5,0.5-0.9v-5h1.8 c3.4,0,6.2-2.8,6.2-6.2V34H47z" class="st2"/></g></svg>