<svg xmlns="http://www.w3.org/2000/svg" xmlns:svg="http://www.w3.org/2000/svg" id="Layer_1" x="0" y="0" version="1.1" viewBox="0 0 64 64" xml:space="preserve" style="enable-background:new 0 0 64 64"><metadata id="metadata10569"/><style id="style10533" type="text/css">.st0{opacity:0}.st1{fill:#0074ff}.st2{fill:#b4bcc1}.st4{fill:#2e3842}.st8{fill:#7d878e}.st21,.st22{fill-rule:evenodd;clip-rule:evenodd;fill:#d6e2b3}.st22{fill:#fff}.st23{fill:#77ba61}.st24{fill:#e7f7dc}</style><g id="g10535" class="st0"><rect id="rect10537" width="64" height="64" class="st1"/></g><g id="g10539"><circle id="circle10541" cx="32" cy="32" r="29" class="st21"/><path id="path10543" d="M32,62C15.5,62,2,48.5,2,32S15.5,2,32,2s30,13.5,30,30S48.5,62,32,62z M32,4C16.6,4,4,16.6,4,32s12.6,28,28,28 s28-12.6,28-28S47.4,4,32,4z" class="st4"/></g><g id="g10545"><path id="path10547" d="M26.9,46.9C26.9,46.9,26.9,47,26.9,46.9c2.7,0.3,7.1,0.4,13.4-0.6c4.8-1.2,9-4.4,9-12.8c0-3-1.1-5.4-2.8-7.3 c0.3-0.7,1.2-3.5-0.3-7.2c0,0-2.3-0.7-7.5,2.8c-2.2-0.6-4.5-0.9-6.8-0.9c-2.3,0-4.6,0.3-6.8,0.9c-5.2-3.5-7.5-2.8-7.5-2.8 c-1.5,3.7-0.5,6.5-0.3,7.2c-1.7,1.9-2.8,4.3-2.8,7.3C14.5,43.9,20.8,46.3,26.9,46.9z" class="st22"/></g><g id="g10549"><path id="path10551" d="M42.3,33.1c-2.2-2.1-6-1-10.3-1c0,0,0,0-0.1,0c0,0,0,0,0,0c-4.3,0-8.1-1.1-10.3,1c-1.3,1.2-1.9,2.7-1.9,4.3 c0,6.7,5.4,7.5,12.2,7.5H32c6.9,0,12.2-0.8,12.2-7.5C44.2,35.8,43.6,34.3,42.3,33.1z M26.1,41.2c-1.3,0-2.4-1.5-2.4-3.3 c0-1.8,1.1-3.3,2.4-3.3c1.3,0,2.4,1.5,2.4,3.3C28.5,39.7,27.4,41.2,26.1,41.2z M37.7,41.2c-1.3,0-2.4-1.5-2.4-3.3 c0-1.8,1.1-3.3,2.4-3.3c1.3,0,2.4,1.5,2.4,3.3C40.1,39.7,39,41.2,37.7,41.2z" class="st23"/></g><g id="g10553"><path id="path10555" d="M32,60C16.5,60,4,47.5,4,32S16.5,4,32,4s28,12.6,28,28S47.5,60,32,60z M32,6C17.6,6,6,17.6,6,32 s11.7,26,26,26c14.4,0,26-11.7,26-26S46.4,6,32,6z" class="st24"/></g><g id="g10557"><path id="path10559" d="M10,9H4C3.4,9,3,8.6,3,8s0.4-1,1-1h6c0.6,0,1,0.4,1,1S10.6,9,10,9z" class="st8"/></g><g id="g10561"><path id="path10563" d="M60,59h-7c-0.6,0-1-0.4-1-1s0.4-1,1-1h7c0.6,0,1,0.4,1,1S60.6,59,60,59z" class="st2"/></g></svg>