<svg xmlns="http://www.w3.org/2000/svg" xmlns:svg="http://www.w3.org/2000/svg" id="Layer_1" x="0" y="0" version="1.1" viewBox="0 0 32 32" xml:space="preserve" style="enable-background:new 0 0 32 32"><metadata id="metadata25"/><style id="style3" type="text/css">.st0{opacity:0}.st1{fill:#ff3386}.st2{fill:#3389ff}</style><g id="g5" class="st0" style="fill:#000"><rect id="rect7" width="32" height="32" class="st1" style="fill:#000"/></g><g id="g9" style="fill:#000"><path id="path11" d="M25.9,32H6.1C2.8,32,0,29.2,0,25.9v-10C0,7.1,7.1,0,15.8,0C24.8,0,32,7.2,32,16.2v9.7C32,29.2,29.2,32,25.9,32 z M15.8,2C8.2,2,2,8.2,2,15.8v10C2,28.1,3.9,30,6.1,30h19.7c2.3,0,4.1-1.9,4.1-4.1v-9.7C30,8.4,23.6,2,15.8,2z" class="st2" style="fill:#000"/></g><g id="g13" style="fill:#000"><path id="path15" d="M16,20.9c-0.1,0-0.2,0-0.2,0c-1-0.1-2-0.6-2.5-1.5l-6-8.7C7,10.4,7,9.9,7.3,9.5c0.3-0.3,0.8-0.4,1.2-0.2 l9.2,5.4c0.9,0.5,1.5,1.4,1.6,2.4c0.1,1-0.2,2-0.9,2.8C17.8,20.6,16.9,20.9,16,20.9z M11.4,13.4l3.4,5c0.2,0.3,0.6,0.6,1,0.6 c0.4,0,0.8-0.1,1.1-0.4c0.3-0.3,0.4-0.7,0.3-1.1c-0.1-0.4-0.3-0.7-0.6-1L11.4,13.4z" class="st2" style="fill:#000"/></g><g id="g17" style="fill:#000"><path id="path19" d="M21.2,11.4c-0.2,0-0.4-0.1-0.6-0.2c-0.5-0.3-0.6-0.9-0.3-1.4l1.7-2.6c0.3-0.5,0.9-0.6,1.4-0.3 C24,7.3,24.1,8,23.8,8.4L22.1,11C21.9,11.3,21.6,11.4,21.2,11.4z" class="st2" style="fill:#000"/></g></svg>