<svg xmlns="http://www.w3.org/2000/svg" xmlns:svg="http://www.w3.org/2000/svg" id="Layer_1" width="20" height="20" x="0" y="0" enable-background="new 0 0 20 20" version="1.1" viewBox="0 0 20 20" xml:space="preserve"><metadata id="metadata15"/><path style="clip-rule:evenodd;fill:#000;fill-rule:evenodd" id="path4137" d="M 9.1679688,1.8691406 C 8.5452724,1.8691406 8.0371094,2.3762736 8.0371094,3 l 0,0.8691406 -2.8691406,0 C 4.5452724,3.8691406 4.0371094,4.3762736 4.0371094,5 l 0,2 c 0,0.5772523 0.4415074,1.0355678 1,1.1035156 l 0,8.8964844 c 0,0.623726 0.508163,1.130859 1.1308594,1.130859 l 8.0000002,0 c 0.623568,0 1.130859,-0.50729 1.130859,-1.130859 l 0,-8.8964844 c 0.559073,-0.067967 1,-0.5264094 1,-1.1035156 l 0,-2 c 0,-0.6237264 -0.508163,-1.1308594 -1.130859,-1.1308594 l -2.869141,0 0,-0.8691406 c 0,-0.6235685 -0.507291,-1.1308594 -1.130859,-1.1308594 l -2.0000002,0 z m 0.1308593,1.2617188 1.7382809,0 0,0.7382812 -1.7382809,0 0,-0.7382812 z m -4,2 9.7382809,0 0,1.7382812 -9.7382809,0 0,-1.7382812 z m 1,3 7.7382809,0 0,8.7382816 -7.7382809,0 0,-8.7382816 z M 8.6679688,8.8691406 C 8.3207979,8.8691406 8.0371094,9.1538878 8.0371094,9.5 l 0,6 c 0,0.346855 0.2840048,0.630859 0.6308594,0.630859 0.3468544,0 0.6308593,-0.284004 0.6308593,-0.630859 l 0,-6 c 0,-0.3461122 -0.2836886,-0.6308594 -0.6308593,-0.6308594 z m 3.0000002,0 c -0.347171,0 -0.63086,0.2847472 -0.63086,0.6308594 l 0,6 c 0,0.346538 0.283261,0.630859 0.63086,0.630859 0.346854,0 0.630859,-0.284004 0.630859,-0.630859 l 0,-6 c 0,-0.3461122 -0.283688,-0.6308594 -0.630859,-0.6308594 z"/></svg>