<svg xmlns="http://www.w3.org/2000/svg" xmlns:svg="http://www.w3.org/2000/svg" id="Layer_1" width="16" height="16" x="0" y="0" enable-background="new 0 0 16 16" version="1.1" viewBox="0 0 16 16" xml:space="preserve"><metadata id="metadata13"/><path id="path7" d="M 13,2 10,2 10,1 C 10,0.447 9.553,0 9,0 L 7,0 C 6.448,0 6,0.447 6,1 L 6,2 3,2 C 2.448,2 2,2.447 2,3 l 0,2 c 0,0.553 0.448,1 1,1 l 0,8 c 0,0.553 0.448,1 1,1 l 8,0 c 0.553,0 1,-0.447 1,-1 l 0,-8 c 0.553,0 1,-0.447 1,-1 L 14,3 C 14,2.447 13.553,2 13,2 Z M 7,1 9,1 9,2 7,2 7,1 Z M 7,12.5 C 7,12.776 6.776,13 6.5,13 6.224,13 6,12.776 6,12.5 l 0,-5 C 6,7.225 6.224,7 6.5,7 6.776,7 7,7.225 7,7.5 l 0,5 z m 3,0 C 10,12.776 9.776,13 9.5,13 9.224,13 9,12.776 9,12.5 l 0,-5 C 9,7.225 9.224,7 9.5,7 9.776,7 10,7.225 10,7.5 l 0,5 z M 13,5 3,5 3,3 13,3 13,5 Z" style="clip-rule:evenodd;fill:#000;fill-rule:evenodd"/></svg>