<svg xmlns="http://www.w3.org/2000/svg" xmlns:svg="http://www.w3.org/2000/svg" id="Layer_1" width="20" height="20" x="0" y="0" enable-background="new 0 0 20 20" version="1.1" viewBox="0 0 20 20" xml:space="preserve"><metadata id="metadata17"/><path style="fill:#000" id="path7" d="M 7 2 C 6.447 2 6 2.447 6 3 L 6 8 L 7 8 L 7 3 L 13 3 L 13 6 C 13 6.553 13.447 7 14 7 L 17 7 L 17 17 L 10 17 L 10 18 L 17 18 C 17.553 18 18 17.553 18 17 L 18 9 L 18 7 L 18 6.2929688 L 13.707031 2 L 13 2 L 8 2 L 7 2 z M 14 3.7070312 L 16.292969 6 L 14 6 L 14 3.7070312 z M 6.5 9 C 4.015 9 2 11.015 2 13.5 C 2 15.985 4.015 18 6.5 18 C 8.985 18 11 15.985 11 13.5 C 11 11.015 8.985 9 6.5 9 z M 6.5 10 C 8.43 10 10 11.57 10 13.5 C 10 15.43 8.43 17 6.5 17 C 4.57 17 3 15.43 3 13.5 C 3 11.57 4.57 10 6.5 10 z M 4.4375 13 C 4.1955 13 4 13.1965 4 13.4375 L 4 13.5625 C 4 13.8045 4.1955 14 4.4375 14 L 8.5625 14 C 8.8045 14 9 13.8045 9 13.5625 L 9 13.4375 C 9 13.1955 8.8035 13 8.5625 13 L 4.4375 13 z"/></svg>