<svg xmlns="http://www.w3.org/2000/svg" xmlns:svg="http://www.w3.org/2000/svg" id="Layer_1" width="20" height="20" x="0" y="0" enable-background="new 0 0 20 20" version="1.1" viewBox="0 0 20 20" xml:space="preserve"><metadata id="metadata17"/><path style="fill:#000" id="path9" d="M 7 2 C 6.447 2 6 2.447 6 3 L 6 8 L 7 8 L 7 3 L 13 3 L 13 6 C 13 6.553 13.447 7 14 7 L 17 7 L 17 17 L 10 17 L 10 18 L 17 18 C 17.553 18 18 17.553 18 17 L 18 9 L 18 7 L 18 6.2929688 L 13.707031 2 L 13 2 L 8 2 L 7 2 z M 14 3.7070312 L 16.292969 6 L 14 6 L 14 3.7070312 z M 6.5 9 L 2 14 L 2 15 L 4 15 L 4 18 L 9 18 L 9 15 L 11 15 L 11 14 L 6.5 9 z M 6.5 10.494141 L 9.6542969 14 L 9 14 L 8 14 L 8 15 L 8 17 L 5 17 L 5 15 L 5 14 L 4 14 L 3.3457031 14 L 6.5 10.494141 z"/></svg>