<svg xmlns="http://www.w3.org/2000/svg" xmlns:svg="http://www.w3.org/2000/svg" id="Layer_1" width="20" height="20" x="0" y="0" enable-background="new 0 0 20 20" version="1.1" viewBox="0 0 20 20" xml:space="preserve"><metadata id="metadata17"/><path style="fill:#000" id="path9" d="M 7,2 C 6.447,2 6,2.447 6,3 l 0,4 1,0 0,-4 6,0 0,3 c 0,0.553 0.447,1 1,1 l 3,0 0,10 -6,0 0,1 6,0 c 0.553,0 1,-0.447 1,-1 L 18,9 18,7 18,6.2929688 13.707031,2 13,2 8,2 Z M 14,3.7070312 16.292969,6 14,6 Z"/><path id="path4687" d="M 6.5 8 C 4.85 8 3.5 9.35 3.5 11 L 3.5 12.5 L 3 12.5 L 3 18 L 10 18 L 10 12.5 L 9.5 12.5 L 9.5 11 C 9.5 9.35 8.15 8 6.5 8 z M 6.5 9 C 7.6 9 8.5 9.9 8.5 11 L 8.5 12.5 L 4.5 12.5 L 4.5 11 C 4.5 9.9 5.4 9 6.5 9 z M 4 13.5 L 9 13.5 L 9 17 L 4 17 L 4 13.5 z"/></svg>