<svg xmlns="http://www.w3.org/2000/svg" xmlns:svg="http://www.w3.org/2000/svg" id="Layer_1" width="20" height="20" x="0" y="0" enable-background="new 0 0 20 20" version="1.1" viewBox="0 0 20 20" xml:space="preserve"><metadata id="metadata17"/><path style="fill:#000" id="path9" d="M 7,2 C 6.447,2 6,2.447 6,3 l 0,3 1,0 0,-3 6,0 0,3 c 0,0.553 0.447,1 1,1 l 3,0 0,10 -7,0 0,1 7,0 c 0.553,0 1,-0.447 1,-1 L 18,9 18,7 18,6.2929688 13.707031,2 13,2 8,2 Z M 14,3.7070312 16.292969,6 14,6 Z M 6.5,9 2,14 l 0,1 2,0 0,3 5,0 0,-3 2,0 0,-1 z m 0,1.494141 L 9.6542969,14 9,14 l -1,0 0,1 0,2 -3,0 0,-2 0,-1 -1,0 -0.6542969,0 z"/><rect style="fill:#000;fill-opacity:1;stroke:none;stroke-width:1;stroke-linejoin:miter;stroke-miterlimit:4;stroke-dasharray:none;stroke-opacity:1" id="rect4133" width="9" height="1.017" x="2" y="6.983"/></svg>