<svg xmlns="http://www.w3.org/2000/svg" xmlns:svg="http://www.w3.org/2000/svg" id="Layer_1" width="20" height="20" x="0" y="0" enable-background="new 0 0 20 20" version="1.1" viewBox="0 0 20 20" xml:space="preserve"><metadata id="metadata13"/><g id="g3" style="fill:#000"><g id="g5" style="fill:#000"><path id="path7" fill="#A1B0B5" fill-rule="evenodd" d="M13,1v2h2V1H13z M9,3h2V1H9V3z M9,7h2V5H9V7z M13,7h2V5h-2V7z M13,11h2V9h-2V11z M9,11h2V9H9V11z M9,15h2v-2H9V15z M13,15h2v-2h-2V15z M13,19h2v-2h-2V19z M9,19h2v-2H9V19z M5,3h2V1H5V3z M5,7 h2V5H5V7z M5,11h2V9H5V11z M5,15h2v-2H5V15z M5,19h2v-2H5V19z" clip-rule="evenodd" style="fill:#000"/></g></g></svg>