<svg xmlns="http://www.w3.org/2000/svg" xmlns:svg="http://www.w3.org/2000/svg" id="Layer_1" width="20" height="20" x="0" y="0" enable-background="new 0 0 20 20" version="1.1" viewBox="0 0 20 20" xml:space="preserve"><metadata id="metadata9"/><path id="path3" fill="#A1B0B5" d="M18,5.507c0-1.381-3.357-2.503-7.5-2.503S3,4.121,3,5.502c0,0.196,0.074,0.385,0.202,0.567 C3.202,6.068,9,14,9,14v5l3-1v-4c0,0,5.835-7.972,5.854-8.002C17.854,5.998,18,5.673,18,5.507z M10.5,4 c4.041,0,6.215,1.04,6.486,1.5C16.715,5.96,14.541,7,10.5,7S4.285,5.96,4.014,5.5C4.285,5.04,6.459,4,10.5,4z M16.98,6.755 L16.98,6.755L16.98,6.755z M11.192,13.41C11.067,13.581,11,13.788,11,14v3.279l-1,0.333V14c0-0.212-0.067-0.419-0.192-0.59 L5.352,7.314C6.695,7.738,8.504,8,10.5,8c1.998,0,3.809-0.262,5.153-0.687c-0.002,0.001-0.004,0.001-0.006,0.002L11.192,13.41z" style="fill:#000"/></svg>