<svg xmlns="http://www.w3.org/2000/svg" xmlns:svg="http://www.w3.org/2000/svg" id="Layer_1" width="20" height="20" x="0" y="0" enable-background="new 0 0 20 20" version="1.1" viewBox="0 0 20 20" xml:space="preserve"><metadata id="metadata13"/><path id="path7" d="m 10,10 -4,0 0,1 4,0 0,-1 z M 15,3 14,3 C 14,2.447 13.553,2 13,2 L 7,2 C 6.447,2 6,2.447 6,3 L 5,3 C 4.447,3 4,3.447 4,4 l 0,13 c 0,0.553 0.447,1 1,1 l 10,0 c 0.553,0 1,-0.447 1,-1 L 16,4 C 16,3.447 15.553,3 15,3 Z M 7,3 13,3 13,4 7,4 7,3 Z m 8,13 c 0,0.553 -0.447,1 -1,1 L 6,17 C 5.447,17 5,16.553 5,16 L 5,5 C 5,4.447 5.447,4 6,4 6,4.553 6.447,5 7,5 l 6,0 c 0.553,0 1,-0.447 1,-1 0.553,0 1,0.447 1,1 l 0,11 z M 6,9 14,9 14,8 6,8 6,9 Z m 0,4 8,0 0,-1 -8,0 0,1 z" style="clip-rule:evenodd;fill:#000;fill-rule:evenodd"/></svg>