<svg xmlns="http://www.w3.org/2000/svg" xmlns:svg="http://www.w3.org/2000/svg" id="Layer_1" width="40" height="40" x="0" y="0" enable-background="new 0 0 40 40" version="1.1" viewBox="0 0 40 40" xml:space="preserve"><metadata id="metadata13"/><path id="path7" d="M 7,10 C 7,8.896 7.896,8 9,8 l 1,0 C 10.553,8 11,7.553 11,7 11,6.448 10.553,6 10,6 L 9,6 C 6.791,6 5,7.791 5,10 l 0,7 c 0,1.104 -0.896,2 -2,2 l -1,0 c -0.553,0 -1,0.448 -1,1 0,0.553 0.447,1 1,1 l 1,0 c 1.104,0 2,0.896 2,2 l 0,7 c 0,2.209 1.791,4 4,4 l 1,0 c 0.553,0 1,-0.447 1,-1 0,-0.553 -0.447,-1 -1,-1 L 9,32 C 7.896,32 7,31.104 7,30 L 7,23 C 7,21.799 6.459,20.732 5.62,20 6.459,19.267 7,18.202 7,17 l 0,-7 z m 31,9 -1,0 c -1.104,0 -2,-0.896 -2,-2 l 0,-7 C 35,7.791 33.209,6 31,6 l -1,0 c -0.553,0 -1,0.448 -1,1 0,0.553 0.447,1 1,1 l 1,0 c 1.104,0 2,0.896 2,2 l 0,7 c 0,1.202 0.541,2.267 1.38,3 C 33.541,20.732 33,21.799 33,23 l 0,7 c 0,1.104 -0.896,2 -2,2 l -1,0 c -0.553,0 -1,0.447 -1,1 0,0.553 0.447,1 1,1 l 1,0 c 2.209,0 4,-1.791 4,-4 l 0,-7 c 0,-1.104 0.896,-2 2,-2 l 1,0 c 0.553,0 1,-0.447 1,-1 0,-0.552 -0.447,-1 -1,-1 z M 20,13 c -0.553,0 -1,0.448 -1,1 0,0.553 0.447,1 1,1 0.553,0 1,-0.447 1,-1 0,-0.552 -0.447,-1 -1,-1 z m 0,4 c -0.553,0 -1,0.448 -1,1 l 0,8 c 0,0.553 0.447,1 1,1 0.553,0 1,-0.447 1,-1 l 0,-8 c 0,-0.552 -0.447,-1 -1,-1 z" style="fill:#000"/></svg>