<svg xmlns="http://www.w3.org/2000/svg" xmlns:svg="http://www.w3.org/2000/svg" id="Layer_1" width="20" height="20" x="0" y="0" enable-background="new 0 0 20 20" version="1.1" viewBox="0 0 20 20" xml:space="preserve"><metadata id="metadata13"/><g id="g3" style="fill:#000"><g id="g5" style="fill:#000"><path id="path7" fill="#A1B0B5" d="M10,0C6.691,0,4,2.691,4,6c0,1.536,0.298,3.221,0.884,5.008c0.466,1.417,1.113,2.902,1.925,4.416 c1.381,2.571,2.741,4.312,2.799,4.385C9.702,19.93,9.848,20,10,20c0.153,0,0.298-0.07,0.393-0.191 c0.058-0.072,1.418-1.813,2.799-4.385c0.812-1.514,1.459-2.999,1.925-4.416C15.702,9.221,16,7.536,16,6C16,2.691,13.308,0,10,0z M12.318,14.935c-0.903,1.687-1.816,3.027-2.318,3.727c-0.5-0.696-1.407-2.029-2.309-3.71C6.463,12.664,5,9.254,5,6 c0-2.757,2.243-5,5-5s5,2.243,5,5C15,9.248,13.542,12.652,12.318,14.935z M10,3C8.346,3,7,4.346,7,6s1.346,3,3,3s3-1.346,3-3 S11.654,3,10,3z M10,8C8.896,8,8,7.104,8,6c0-1.103,0.896-2,2-2c1.103,0,2,0.897,2,2C12,7.104,11.103,8,10,8z" style="fill:#000"/></g></g></svg>