<svg xmlns="http://www.w3.org/2000/svg" xmlns:svg="http://www.w3.org/2000/svg" id="Layer_1" width="40" height="40" x="0" y="0" enable-background="new 0 0 40 40" version="1.1" viewBox="0 0 40 40" xml:space="preserve"><metadata id="metadata13"/><path id="path7" d="M 37,0 3,0 C 1.346,0 0,1.346 0,3 l 0,34 c 0,1.654 1.346,3 3,3 l 34,0 c 1.654,0 3,-1.346 3,-3 L 40,3 C 40,1.346 38.654,0 37,0 Z m 1,37 c 0,0.553 -0.447,1 -1,1 L 3,38 C 2.448,38 2,37.553 2,37 L 2,3 C 2,2.448 2.448,2 3,2 l 34,0 c 0.553,0 1,0.448 1,1 l 0,34 z M 26,18 c 2.205,0 4,-1.794 4,-4 0,-2.206 -1.795,-4 -4,-4 -2.205,0 -4,1.794 -4,4 0,2.206 1.795,4 4,4 z m 0,-6 c 1.102,0 2,0.898 2,2 0,1.102 -0.898,2 -2,2 -1.102,0 -2,-0.898 -2,-2 0,-1.102 0.898,-2 2,-2 z M 35,4 5,4 C 4.448,4 4,4.448 4,5 l 0,24 c 0,0.553 0.448,1 1,1 l 30,0 c 0.553,0 1,-0.447 1,-1 L 36,5 C 36,4.448 35.553,4 35,4 Z M 6,28 6,23.381 12.418,16.16 c 0.164,-0.187 0.38,-0.288 0.604,-0.292 0.224,-0.002 0.441,0.096 0.611,0.275 L 24.697,28 6,28 Z m 28,0 -6.566,0 -12.338,-13.22 c -0.558,-0.599 -1.302,-0.922 -2.098,-0.912 -0.794,0.01 -1.532,0.352 -2.074,0.962 L 6,20.369 6,6 34,6 34,28 Z" style="fill:#1a1a1a"/></svg>