<svg xmlns="http://www.w3.org/2000/svg" xmlns:svg="http://www.w3.org/2000/svg" id="Layer_1" width="16" height="16" x="0" y="0" enable-background="new 0 0 16 16" version="1.1" viewBox="0 0 16 16" xml:space="preserve"><metadata id="metadata13"/><path id="path7" d="M 2,6 C 0.896,6 0,6.896 0,8 0,9.104 0.896,10 2,10 3.104,10 4,9.104 4,8 4,6.896 3.104,6 2,6 Z M 8,6 C 6.896,6 6,6.896 6,8 6,9.104 6.896,10 8,10 9.104,10 10,9.104 10,8 10,6.896 9.104,6 8,6 Z m 6,0 c -1.104,0 -2,0.896 -2,2 0,1.104 0.896,2 2,2 1.104,0 2,-0.896 2,-2 0,-1.104 -0.896,-2 -2,-2 z" style="clip-rule:evenodd;fill:#000;fill-rule:evenodd"/></svg>