<svg xmlns="http://www.w3.org/2000/svg" xmlns:svg="http://www.w3.org/2000/svg" id="Layer_1" x="0" y="0" version="1.1" viewBox="0 0 45 44.8" xml:space="preserve" style="enable-background:new 0 0 45 44.8"><metadata id="metadata29"/><style id="style2" type="text/css">.st0{fill:#3389ff}</style><g id="g6" style="fill:#000"><path id="path4" d="M34,41.4H11c-3.9,0-7-3.1-7-7v-13c0-3.9,3.1-7,7-7h23c3.9,0,7,3.1,7,7v13C41,38.3,37.9,41.4,34,41.4z M11,16.4 c-2.8,0-5,2.2-5,5v13c0,2.8,2.2,5,5,5h23c2.8,0,5-2.2,5-5v-13c0-2.8-2.2-5-5-5H11z" class="st0" style="fill:#000"/></g><g id="g10" style="fill:#000"><path id="path8" d="M32,25.4H12c-0.6,0-1-0.4-1-1s0.4-1,1-1h20c0.6,0,1,0.4,1,1S32.6,25.4,32,25.4z" class="st0" style="fill:#000"/></g><g id="g14" style="fill:#000"><path id="path12" d="M22,32.4H12c-0.6,0-1-0.4-1-1s0.4-1,1-1h10c0.6,0,1,0.4,1,1S22.6,32.4,22,32.4z" class="st0" style="fill:#000"/></g><g id="g18" style="fill:#000"><path id="path16" d="M34,11.4H11c-0.6,0-1-0.4-1-1s0.4-1,1-1h23c0.6,0,1,0.4,1,1S34.6,11.4,34,11.4z" class="st0" style="fill:#000"/></g><g id="g22" style="fill:#000"><path id="path20" d="M30,6.4H15c-0.6,0-1-0.4-1-1s0.4-1,1-1h15c0.6,0,1,0.4,1,1S30.6,6.4,30,6.4z" class="st0" style="fill:#000"/></g></svg>