<svg xmlns="http://www.w3.org/2000/svg" xmlns:svg="http://www.w3.org/2000/svg" id="Layer_1" width="40" height="40" x="0" y="0" enable-background="new 0 0 40 40" version="1.1" viewBox="0 0 40 40" xml:space="preserve"><metadata id="metadata13"/><path id="path7" d="m 34.847,5.153 c -2.872,-2.871 -7.545,-2.871 -10.416,0 l -6.14,6.137 c -0.389,0.392 -0.389,1.024 0,1.417 0.393,0.39 1.025,0.39 1.416,0 L 25.845,6.57 c 2.09,-2.092 5.495,-2.092 7.585,0 2.093,2.09 2.093,5.495 0,7.585 l -7.271,7.272 c -2.091,2.093 -5.495,2.093 -7.585,0 -0.394,-0.391 -1.025,-0.391 -1.417,0 -0.392,0.394 -0.392,1.023 0,1.416 1.437,1.435 3.32,2.153 5.208,2.153 1.888,0 3.773,-0.72 5.21,-2.153 l 7.272,-7.274 c 2.871,-2.87 2.871,-7.545 0,-10.416 z M 20.291,27.294 14.155,33.43 c -2.09,2.092 -5.495,2.092 -7.585,0 -2.093,-2.09 -2.093,-5.495 0,-7.585 l 7.271,-7.272 c 2.091,-2.093 5.495,-2.093 7.585,0 0.394,0.39 1.023,0.39 1.417,0 0.392,-0.394 0.392,-1.024 0,-1.416 -2.873,-2.871 -7.547,-2.871 -10.418,0 l -7.272,7.272 c -2.871,2.874 -2.871,7.547 0,10.418 C 6.59,36.281 8.475,37 10.361,37 c 1.888,0 3.771,-0.719 5.208,-2.153 l 6.138,-6.138 c 0.391,-0.391 0.391,-1.023 0,-1.415 -0.391,-0.39 -1.023,-0.39 -1.416,0 z" style="fill:#000"/></svg>