<svg xmlns="http://www.w3.org/2000/svg" xmlns:svg="http://www.w3.org/2000/svg" id="Layer_1" x="0" y="0" version="1.1" viewBox="0 0 32 32" xml:space="preserve" style="enable-background:new 0 0 32 32"><metadata id="metadata5887"/><style id="style5861" type="text/css">.st0{opacity:0}.st1{fill:#ff3386}.st2{fill:#3389ff}</style><g id="g5863" class="st0" style="fill:#000"><rect id="rect5865" width="32" height="32" class="st1" style="fill:#000"/></g><g id="g5867" style="fill:#000"><path id="path5869" d="M25,32H7c-3.9,0-7-3.1-7-7v-9.4c0-3.9,3.1-7,7-7h18c3.9,0,7,3.1,7,7V25C32,28.9,28.9,32,25,32z M7,10.6 c-2.8,0-5,2.2-5,5V25c0,2.8,2.2,5,5,5h18c2.8,0,5-2.2,5-5v-9.4c0-2.8-2.2-5-5-5H7z" class="st2" style="fill:#000"/></g><g id="g5871" style="fill:#000"><path id="path5873" d="M25.9,6.3H6.1c-0.6,0-1-0.4-1-1s0.4-1,1-1h19.7c0.6,0,1,0.4,1,1S26.4,6.3,25.9,6.3z" class="st2" style="fill:#000"/></g><g id="g5875" style="fill:#000"><path id="path5877" d="M22.4,2H9.6c-0.6,0-1-0.4-1-1s0.4-1,1-1h12.9c0.6,0,1,0.4,1,1S23,2,22.4,2z" class="st2" style="fill:#000"/></g><g id="g5879" style="fill:#000"><path id="path5881" d="M25,13v2c0,1.5-1.2,2.6-2.6,2.6H9.6C8.2,17.7,7,16.5,7,15v-2H5.3v2c0,2.4,2,4.4,4.4,4.4h12.7 c2.4,0,4.4-2,4.4-4.4v-2H25z" class="st2" style="fill:#000"/></g></svg>