<svg xmlns="http://www.w3.org/2000/svg" xmlns:svg="http://www.w3.org/2000/svg" id="Layer_1" width="16" height="16" x="0" y="0" enable-background="new 0 0 16 16" version="1.1" viewBox="0 0 16 16" xml:space="preserve"><metadata id="metadata9"/><path id="path3" fill="#438CEF" fill-rule="evenodd" d="M14.684,15.684c-0.425,0.422-1.113,0.422-1.537,0l-2.64-2.64 c-1.034,0.601-2.219,0.97-3.5,0.97C3.136,14.014,0,10.876,0,7.007C0,3.136,3.136,0,7.007,0c3.87,0,7.008,3.136,7.008,7.007 c0,1.799-0.698,3.421-1.811,4.661l2.479,2.479C15.105,14.571,15.105,15.259,14.684,15.684z M7.007,2.002 c-2.764,0-5.005,2.24-5.005,5.005s2.241,5.005,5.005,5.005c2.765,0,5.006-2.24,5.006-5.005S9.771,2.002,7.007,2.002z" clip-rule="evenodd" style="fill:#000"/></svg>