<svg xmlns="http://www.w3.org/2000/svg" xmlns:svg="http://www.w3.org/2000/svg" id="Layer_1" width="20" height="20" x="0" y="0" enable-background="new 0 0 20 20" version="1.1" viewBox="0 0 20 20" xml:space="preserve"><metadata id="metadata17"/><g id="g4728" transform="translate(-1.4278535,-0.91235)"><path id="path7-9" d="m 6.4278534,2.912349 c -0.553,0 -1,0.447 -1,1 V 8.91235 h 1 V 3.912349 H 12.427853 V 6.91235 c 0,0.553 0.447,1 1,1 h 3 v 10 h -4 -2.9999996 -3 v -9 h -1 v 9 c 0,0.553 0.447,1 1,1 h 1 2 2.9999996 4 c 0.553,0 1,-0.447 1,-1 V 9.9123499 7.91235 7.205319 L 13.134884,2.912349 H 12.427853 7.4278534 Z m 6.9999996,1.707032 2.292969,2.292969 h -2.292969 z" clip-path="none" mask="none" style="display:inline;fill:#000"/><path id="path7-9-8" d="m 8.2324219,1.2246094 c -0.553,0 -1,0.447 -1,1 V 2.6875 h 1 V 2.2246094 h 6.0000001 l 4,4 v 9.9140626 0.08594 h -0.464844 v 1 h 0.464844 c 0.553,0 1,-0.447 1,-1 v -7.9999996 -2 -0.7070313 L 14.939453,1.2246094 H 14.232422 9.2324219 Z" clip-path="none" mask="none" style="display:inline;fill:#000"/></g><path style="color:#000;font-style:normal;font-variant:normal;font-weight:400;font-stretch:normal;font-size:medium;line-height:normal;font-family:sans-serif;font-variant-ligatures:normal;font-variant-position:normal;font-variant-caps:normal;font-variant-numeric:normal;font-variant-alternates:normal;font-feature-settings:normal;text-indent:0;text-align:start;text-decoration:none;text-decoration-line:none;text-decoration-style:solid;text-decoration-color:#000;letter-spacing:normal;word-spacing:normal;text-transform:none;writing-mode:lr-tb;direction:ltr;text-orientation:mixed;dominant-baseline:auto;baseline-shift:baseline;text-anchor:start;white-space:normal;shape-padding:0;clip-rule:nonzero;display:inline;overflow:visible;visibility:visible;opacity:1;isolation:auto;mix-blend-mode:normal;color-interpolation:sRGB;color-interpolation-filters:linearRGB;solid-color:#000;solid-opacity:1;vector-effect:none;fill:#000;fill-opacity:1;fill-rule:nonzero;stroke:none;stroke-width:1px;stroke-linecap:butt;stroke-linejoin:miter;stroke-miterlimit:4;stroke-dasharray:none;stroke-dashoffset:0;stroke-opacity:1;color-rendering:auto;image-rendering:auto;shape-rendering:auto;text-rendering:auto;enable-background:accumulate" id="path4553-8" d="M 7.9864531,11.478907 7.297,10.756251 9.9942654,8.1800781 12.689578,10.756251 12.000125,11.478907 9.9942654,9.5628911 Z"/><path style="color:#000;font-style:normal;font-variant:normal;font-weight:400;font-stretch:normal;font-size:medium;line-height:normal;font-family:sans-serif;font-variant-ligatures:normal;font-variant-position:normal;font-variant-caps:normal;font-variant-numeric:normal;font-variant-alternates:normal;font-feature-settings:normal;text-indent:0;text-align:start;text-decoration:none;text-decoration-line:none;text-decoration-style:solid;text-decoration-color:#000;letter-spacing:normal;word-spacing:normal;text-transform:none;writing-mode:lr-tb;direction:ltr;text-orientation:mixed;dominant-baseline:auto;baseline-shift:baseline;text-anchor:start;white-space:normal;shape-padding:0;clip-rule:nonzero;display:inline;overflow:visible;visibility:visible;opacity:1;isolation:auto;mix-blend-mode:normal;color-interpolation:sRGB;color-interpolation-filters:linearRGB;solid-color:#000;solid-opacity:1;vector-effect:none;fill:#000;fill-opacity:1;fill-rule:nonzero;stroke:none;stroke-width:1px;stroke-linecap:butt;stroke-linejoin:miter;stroke-miterlimit:4;stroke-dasharray:none;stroke-dashoffset:0;stroke-opacity:1;color-rendering:auto;image-rendering:auto;shape-rendering:auto;text-rendering:auto;enable-background:accumulate" id="path4553-9-7" d="M 9.9942654,15.1 7.297,12.523828 l 0.6894531,-0.722656 2.0078123,1.916015 2.0058596,-1.916015 0.689453,0.722656 z"/></svg>