<svg xmlns="http://www.w3.org/2000/svg" xmlns:svg="http://www.w3.org/2000/svg" id="Layer_1" width="40" height="40" x="0" y="0" enable-background="new 0 0 40 40" version="1.1" viewBox="0 0 40 40" xml:space="preserve"><metadata id="metadata13"/><path id="path7" d="M 34,36 6,36 c -0.552,0 -1,0.447 -1,1 0,0.553 0.448,1 1,1 l 28,0 c 0.553,0 1,-0.447 1,-1 0,-0.553 -0.447,-1 -1,-1 z M 7.605,31.92 c 0.509,0.217 1.097,-0.018 1.313,-0.525 L 13.802,20 26.198,20 31.081,31.395 C 31.244,31.773 31.611,32 32,32 c 0.133,0 0.266,-0.025 0.395,-0.08 0.508,-0.219 0.742,-0.807 0.525,-1.314 L 27.779,18.616 C 27.777,18.614 27.777,18.61 27.775,18.608 l -6.855,-16 C 20.762,2.238 20.4,2 20,2 19.6,2 19.238,2.238 19.08,2.606 l -6.855,16 c -0.002,0.002 -0.002,0.006 -0.004,0.008 L 7.08,30.605 c -0.216,0.508 0.018,1.096 0.525,1.315 z M 20,5.538 25.34,18 14.66,18 20,5.538 Z" style="fill:#000"/></svg>