<svg xmlns="http://www.w3.org/2000/svg" xmlns:svg="http://www.w3.org/2000/svg" id="Layer_1" width="40" height="40" x="0" y="0" enable-background="new 0 0 40 40" version="1.1" viewBox="0 0 40 40" xml:space="preserve"><metadata id="metadata5284"/><g id="g5274" style="fill:#000"><g id="g5276" style="fill:#000"><path id="path5278" fill="#438CEF" d="M3.008,4.008h5v13c0,0.552,0.446,1,1,1c0.551,0,1-0.448,1-1v-13h5c0.551,0,1-0.448,1-1 c0-0.553-0.449-1-1-1h-12c-0.554,0-1,0.447-1,1C2.008,3.559,2.454,4.008,3.008,4.008z M37.008,28.007h-7v-4h7c0.553,0,1-0.447,1-1 s-0.447-1-1-1h-8c-0.554,0-1,0.447-1,1v14c0,0.553,0.446,1,1,1c0.553,0,1-0.447,1-1v-7h7c0.553,0,1-0.447,1-1 S37.559,28.007,37.008,28.007z M37.699,2.284c-0.389-0.388-1.02-0.388-1.408,0L2.283,36.291c-0.389,0.39-0.389,1.019,0,1.408 c0.391,0.39,1.02,0.39,1.408,0L37.699,3.692C38.088,3.304,38.088,2.673,37.699,2.284z" style="fill:#000"/></g></g></svg>