<svg xmlns="http://www.w3.org/2000/svg" xmlns:svg="http://www.w3.org/2000/svg" xmlns:xlink="http://www.w3.org/1999/xlink" id="Layer_1" x="0" y="0" version="1.1" viewBox="0 0 40 40" xml:space="preserve" style="enable-background:new 0 0 40 40"><g><path d="M32.5,10.5H6.8c-0.6,0-1-0.4-1-1s0.4-1,1-1h25.7c0.6,0,1,0.4,1,1S33.1,10.5,32.5,10.5z"/></g><g><path d="M32.5,17.7h-16c-0.6,0-1-0.4-1-1s0.4-1,1-1h16c0.6,0,1,0.4,1,1S33.1,17.7,32.5,17.7z"/></g><g><path d="M32.5,25.1h-16c-0.6,0-1-0.4-1-1s0.4-1,1-1h16c0.6,0,1,0.4,1,1S33.1,25.1,32.5,25.1z"/></g><g><path d="M32.5,32.5h-16c-0.6,0-1-0.4-1-1s0.4-1,1-1h16c0.6,0,1,0.4,1,1S33.1,32.5,32.5,32.5z"/></g></svg>