<svg xmlns="http://www.w3.org/2000/svg" xmlns:svg="http://www.w3.org/2000/svg" id="Layer_1" width="40" height="40" x="0" y="0" enable-background="new 0 0 40 40" version="1.1" viewBox="0 0 40 40" xml:space="preserve"><metadata id="metadata13"/><path id="path7" d="M 10,26 7,26 7,13 C 7,12.448 6.552,12 6,12 l -3,0 c -0.552,0 -1,0.448 -1,1 0,0.552 0.448,1 1,1 l 2,0 0,12 -3,0 c -0.552,0 -1,0.448 -1,1 0,0.552 0.448,1 1,1 l 8,0 c 0.552,0 1,-0.448 1,-1 0,-0.552 -0.448,-1 -1,-1 z m 14,-14 -8,0 c -0.552,0 -1,0.448 -1,1 0,0.552 0.448,1 1,1 l 7,0 0,5 -7,0 c -0.552,0 -1,0.448 -1,1 l 0,7 c 0,0.552 0.448,1 1,1 l 8,0 c 0.552,0 1,-0.448 1,-1 0,-0.552 -0.448,-1 -1,-1 l -7,0 0,-5 7,0 c 0.552,0 1,-0.448 1,-1 l 0,-7 c 0,-0.552 -0.448,-1 -1,-1 z m 14,0 -8,0 c -0.552,0 -1,0.448 -1,1 0,0.552 0.448,1 1,1 l 7,0 0,5 -7,0 c -0.552,0 -1,0.448 -1,1 0,0.552 0.448,1 1,1 l 7,0 0,5 -7,0 c -0.552,0 -1,0.448 -1,1 0,0.552 0.448,1 1,1 l 8,0 c 0.552,0 1,-0.448 1,-1 l 0,-14 c 0,-0.552 -0.448,-1 -1,-1 z" style="fill:#000"/></svg>