<svg xmlns="http://www.w3.org/2000/svg" xmlns:svg="http://www.w3.org/2000/svg" id="Layer_1" width="16" height="16" x="0" y="0" enable-background="new 0 0 16 16" version="1.1" viewBox="0 0 16 16" xml:space="preserve"><metadata id="metadata9"/><path id="path3" d="m 14.925334,13.25 c 0,0.96775 -0.775238,1.75 -1.730725,1.75 L 2.8067528,15 C 1.853016,15 1.0777767,14.21775 1.0777767,13.25 c 0,-0.01925 -0.17499759,-0.0017 0,0 0.8294885,-2.5095 3.762448,-3.5000004 6.9229044,-3.5000004 3.1674559,0 6.1004149,0.9782504 6.9246529,3.5000004 0.167998,0 0,-0.0017 0,0 z M 4.5374788,4.4999993 c 0,-1.9320002 1.5504787,-3.5000003 3.4632023,-3.5000003 1.9127229,0 3.4632019,1.5680001 3.4632019,3.5000003 0,1.9320001 -1.550479,5.2500003 -3.4632019,5.2500003 -1.9127236,0 -3.4632023,-3.3180002 -3.4632023,-5.2500003 z" style="clip-rule:evenodd;fill:#000;fill-rule:evenodd"/></svg>