<svg xmlns="http://www.w3.org/2000/svg" xmlns:svg="http://www.w3.org/2000/svg" id="Layer_1" width="16" height="16" x="0" y="0" enable-background="new 0 0 16 16" version="1.1" viewBox="0 0 16 16" xml:space="preserve"><metadata id="metadata9"/><path style="color:#000;font-style:normal;font-variant:normal;font-weight:400;font-stretch:normal;font-size:medium;line-height:normal;font-family:sans-serif;text-indent:0;text-align:start;text-decoration:none;text-decoration-line:none;text-decoration-style:solid;text-decoration-color:#000;letter-spacing:normal;word-spacing:normal;text-transform:none;direction:ltr;block-progression:tb;writing-mode:lr-tb;baseline-shift:baseline;text-anchor:start;white-space:normal;clip-rule:evenodd;display:inline;overflow:visible;visibility:visible;opacity:1;isolation:auto;mix-blend-mode:normal;color-interpolation:sRGB;color-interpolation-filters:linearRGB;solid-color:#000;solid-opacity:1;fill:#000;fill-opacity:1;fill-rule:evenodd;stroke:none;stroke-width:.93811327;stroke-linecap:butt;stroke-linejoin:miter;stroke-miterlimit:4;stroke-dasharray:none;stroke-dashoffset:0;stroke-opacity:1;color-rendering:auto;image-rendering:auto;shape-rendering:auto;text-rendering:auto;enable-background:accumulate" id="path3" d="M 8,1 C 5.9422433,1 4.2636719,2.6781188 4.2636719,4.734375 c 0,1.0281281 0.3879792,2.2924576 1.0214843,3.3632812 0.3070853,0.519071 0.6859671,0.9977063 1.1210938,1.3613282 -0.9284868,0.1175591 -1.9063957,0.1471103 -2.6894531,0.5 C 2.4697772,10.520962 1.4614437,11.439303 1.0234375,12.75 1,12.898425 1.0234375,12.75 1,12.890625 l 0,0.0078 C 1,14.054598 1.9462994,15 3.0996094,15 l 9.7988286,0 C 14.052933,15 15,14.054597 15,12.898438 l -0.02344,-0.146485 C 14.541489,11.435344 13.534796,10.515722 12.287109,9.9550781 11.503199,9.6028301 10.523925,9.5734939 9.59375,9.4570312 10.028002,9.0935937 10.406284,8.615918 10.712891,8.0976562 11.346396,7.0268327 11.734375,5.7625031 11.734375,4.734375 11.734375,2.6781188 10.057756,1 8,1 Z m 0,0.9375 c 1.5506449,0 2.796875,1.2480504 2.796875,2.796875 0,0.7744122 -0.341825,1.9590741 -0.890625,2.8867188 C 9.3574504,8.5487384 8.6338295,9.1640625 8,9.1640625 7.3661701,9.1640625 6.6425497,8.5487384 6.09375,7.6210938 5.5449503,6.6934491 5.2011719,5.5087872 5.2011719,4.734375 5.2011719,3.1855504 6.4493543,1.9375 8,1.9375 Z m 0,8.164062 c 1.4461086,0 2.82545,0.225086 3.902344,0.708985 1.0435,0.468894 1.775759,1.167567 2.132812,2.152344 -0.03824,0.61342 -0.514058,1.099609 -1.136718,1.099609 l -9.7988286,0 c -0.6199755,0 -1.095559,-0.485173 -1.1347656,-1.097656 C 2.3238827,11.985078 3.0578646,11.284802 4.1015625,10.814453 5.1787105,10.32903 6.5578973,10.101562 8,10.101562 Z"/></svg>