<svg xmlns="http://www.w3.org/2000/svg" xmlns:svg="http://www.w3.org/2000/svg" id="Layer_1" x="0" y="0" version="1.1" viewBox="0 0 32 32" xml:space="preserve" style="enable-background:new 0 0 32 32"><metadata id="metadata7594"/><style id="style7552" type="text/css">.st0{opacity:0}.st1{fill:#ff3386}.st2{fill:#3389ff}</style><g id="g7554" class="st0" style="fill:#000"><rect id="rect7556" width="32" height="32" class="st1" style="fill:#000"/></g><g id="g7558" style="fill:#000"><path id="path7560" d="M6.8,31c-0.1,0-0.1,0-0.2,0l-0.1,0C2,30.2,0,26.5,0,23.2c0-3.1,1.8-6.5,5.8-7.5v-4.6c0-0.6,0.4-1,1-1 s1,0.4,1,1v5.4c0,0.5-0.4,0.9-0.8,1C3.6,18,2,20.7,2,23.2c0,2.5,1.5,5.2,4.8,5.8L7,29c0.5,0.1,0.9,0.6,0.8,1.2 C7.7,30.7,7.3,31,6.8,31z" class="st2" style="fill:#000"/></g><g id="g7562" style="fill:#000"><path id="path7564" d="M24.2,31.3C24.2,31.3,24.2,31.3,24.2,31.3c-3.2,0-6.6-1.9-7.6-5.8l-5.5,0c-0.6,0-1-0.4-1-1c0-0.6,0.4-1,1-1 h6.3c0.5,0,0.9,0.4,1,0.8c0.5,3.4,3.2,4.9,5.7,5c2.5,0,5.2-1.5,5.8-4.8l0-0.1c0.1-0.5,0.6-0.9,1.2-0.8c0.5,0.1,0.9,0.6,0.8,1.2 l0,0.1C31.2,29.3,27.5,31.3,24.2,31.3z" class="st2" style="fill:#000"/></g><g id="g7566" style="fill:#000"><path id="path7568" d="M24.6,21.2c-0.6,0-1-0.4-1-1v-5.5c0-0.5,0.4-0.9,0.8-1c3.4-0.5,4.9-3.2,5-5.7c0-2.5-1.5-5.2-4.8-5.8l-0.1,0 C23.9,2,23.5,1.5,23.6,1c0.1-0.5,0.6-0.9,1.2-0.8l0.1,0C29.4,1,31.4,4.7,31.4,8c0,3.1-1.9,6.5-5.8,7.5v4.7 C25.6,20.7,25.1,21.2,24.6,21.2z" class="st2" style="fill:#000"/></g><g id="g7570" style="fill:#000"><path id="path7572" d="M1.3,7.7c-0.1,0-0.1,0-0.2,0C0.6,7.6,0.2,7.1,0.3,6.6l0-0.1c0.8-4.5,4.4-6.5,7.7-6.5c0,0,0.1,0,0.1,0 c3.1,0,6.5,1.9,7.5,5.8h4.6c0.6,0,1,0.4,1,1s-0.4,1-1,1h-5.4c-0.5,0-0.9-0.4-1-0.8c-0.5-3.4-3.2-4.9-5.7-5c-2.5,0-5.2,1.5-5.8,4.8 l0,0.1C2.2,7.4,1.8,7.7,1.3,7.7z" class="st2" style="fill:#000"/></g><g id="g7574" style="fill:#000"><path id="path7576" d="M8,12.1c-1,0-2.1-0.4-2.9-1.2c-1.6-1.6-1.6-4.2,0-5.8C5.9,4.4,6.9,4,8,4s2.1,0.4,2.9,1.2 c0.8,0.8,1.2,1.8,1.2,2.9s-0.4,2.1-1.2,2.9C10.1,11.7,9.1,12.1,8,12.1z M8,6C7.5,6,7,6.2,6.6,6.6c-0.8,0.8-0.8,2.1,0,2.9 c0.8,0.8,2.1,0.8,2.9,0c0.4-0.4,0.6-0.9,0.6-1.5S9.9,7,9.5,6.6S8.6,6,8,6z" class="st2" style="fill:#000"/></g><g id="g7578" style="fill:#000"><path id="path7580" d="M24.1,27.3c-1,0-2.1-0.4-2.9-1.2c-1.6-1.6-1.6-4.2,0-5.8c0.8-0.8,1.8-1.2,2.9-1.2s2.1,0.4,2.9,1.2 c0.8,0.8,1.2,1.8,1.2,2.9s-0.4,2.1-1.2,2.9C26.1,26.9,25.1,27.3,24.1,27.3z M24.1,21.2c-0.6,0-1.1,0.2-1.5,0.6 c-0.8,0.8-0.8,2.1,0,2.9c0.8,0.8,2.1,0.8,2.9,0c0.4-0.4,0.6-0.9,0.6-1.5s-0.2-1.1-0.6-1.5S24.6,21.2,24.1,21.2z" class="st2" style="fill:#000"/></g><g id="g7582" style="fill:#000"><path id="path7584" d="M23.3,12.1c-1,0-2.1-0.4-2.9-1.2c-0.8-0.8-1.2-1.8-1.2-2.9s0.4-2.1,1.2-2.9C21.2,4.4,22.3,4,23.3,4 s2.1,0.4,2.9,1.2c1.6,1.6,1.6,4.2,0,5.8l0,0C25.4,11.7,24.4,12.1,23.3,12.1z M23.3,6c-0.6,0-1.1,0.2-1.5,0.6s-0.6,0.9-0.6,1.5 s0.2,1.1,0.6,1.5c0.8,0.8,2.1,0.8,2.9,0c0.8-0.8,0.8-2.1,0-2.9C24.4,6.2,23.9,6,23.3,6z" class="st2" style="fill:#000"/></g><g id="g7586" style="fill:#000"><path id="path7588" d="M8.1,27.3c-1,0-2.1-0.4-2.9-1.2c-0.8-0.8-1.2-1.8-1.2-2.9s0.4-2.1,1.2-2.9C6,19.6,7,19.2,8.1,19.2 s2.1,0.4,2.9,1.2c1.6,1.6,1.6,4.2,0,5.8l0,0C10.2,26.9,9.2,27.3,8.1,27.3z M8.1,21.2c-0.6,0-1.1,0.2-1.5,0.6s-0.6,0.9-0.6,1.5 s0.2,1.1,0.6,1.5c0.8,0.8,2.1,0.8,2.9,0c0.8-0.8,0.8-2.1,0-2.9C9.2,21.4,8.7,21.2,8.1,21.2z" class="st2" style="fill:#000"/></g></svg>